<svg width="66" height="32" viewBox="0 0 66 32" fill="none" xmlns="http://www.w3.org/2000/svg">
<g clip-path="url(#clip0_12_155857)">
<path d="M7.71312 21.4504H2.39605L0.0107422 31.8243H2.72349L3.62123 27.9211H5.02206L7.43773 31.8243H10.4085L7.70011 27.6934C10.1028 27.0689 10.9203 25.7808 11.0721 24.4038C11.2239 23.0269 10.4562 21.4482 7.71095 21.4482L7.71312 21.4504ZM8.36366 24.5535C8.2509 25.5683 7.29894 26.1668 5.97835 26.1668H4.02673L4.751 23.0377H6.80887C7.89961 23.0377 8.46774 23.5712 8.36149 24.5535H8.36366ZM15.3027 21.4526H18.0328L17.3975 24.2065L15.641 31.82H12.8806L15.3027 21.4526ZM38.3882 20.8779L38.4077 31.8178H35.8055L35.8337 24.0114L30.3063 31.8178H27.7844L25.4967 23.968L21.8341 31.8178H18.8091L24.2195 20.4312C24.6119 19.6961 24.9914 19.3687 25.7374 19.3643C26.2318 19.3643 26.7696 19.6484 27.0146 20.5115L29.3761 29.053L35.5193 20.3228C36.0419 19.5834 36.4821 19.3578 37.0893 19.373C37.7398 19.3904 38.3904 19.8176 38.3904 20.8779H38.3882ZM56.7963 26.8737C56.6119 28.5413 57.8805 29.8554 60.101 29.8879C61.1922 29.9183 62.2811 29.7718 63.3255 29.4542L62.7986 31.7333C61.9001 31.8999 60.9887 31.987 60.075 31.9935C55.7077 31.9935 53.678 29.825 54.0033 26.8217C54.3719 23.4302 57.3644 21.149 62.0786 21.149C63.0798 21.1639 64.0767 21.2816 65.0538 21.5003L64.5767 23.5885C63.6538 23.3663 62.707 23.2585 61.7577 23.2676C59.0081 23.2459 57.0435 24.6185 56.7984 26.8737H56.7963ZM45.5354 27.9428L48.0747 24.3583L48.8684 27.9428H45.5354ZM49.7965 31.82H52.4333L49.9092 22.7883C49.5796 21.6933 48.9312 21.4049 48.2569 21.4634C47.834 21.5003 47.3895 21.6803 46.9428 22.32L40.394 31.8222H43.0807L44.4122 29.6971H49.2934L49.8008 31.8287L49.7965 31.82ZM54.4348 8.61744C53.8818 8.8061 29.4801 15.5565 29.1223 15.6411C28.88 15.7166 28.6219 15.7267 28.3744 15.6703C28.1269 15.614 27.8986 15.4932 27.7128 15.3202C27.0623 14.7282 27.329 13.9063 27.5133 13.49C27.7302 12.9999 32.4293 3.11388 32.4293 3.11388L13.6699 10.9789C12.8871 11.2521 12.6203 10.6081 12.6203 10.6081C12.6203 10.6081 12.2929 9.89467 13.1473 9.49133L33.7477 0.238502C34.086 0.0867099 34.7213 -0.212538 35.2157 0.238502C35.7101 0.689542 35.5171 1.37044 35.3653 1.79112C35.2916 1.99062 31.9175 11.3627 31.9175 11.3627C31.9175 11.3627 51.9996 2.74524 52.6502 2.50021C53.923 2.01664 55.081 2.30288 55.9029 3.26134C56.2694 3.69993 56.5249 4.22042 56.6475 4.77871C56.7702 5.33699 56.7565 5.91663 56.6076 6.46849C56.3235 7.4378 55.6968 8.17941 54.4391 8.60877L54.4348 8.61744Z" fill="#F7052D"/>
</g>
<defs>
<clipPath id="clip0_12_155857">
<rect width="65.0539" height="32" fill="white"/>
</clipPath>
</defs>
</svg>
